<svg version="1.1" id="Layer_1" xmlns="http://www.w3.org/2000/svg" xmlns:xlink="http://www.w3.org/1999/xlink" x="0px" y="0px"
	 width="100%" viewBox="0 0 669 397" enable-background="new 0 0 669 397" xml:space="preserve">
<path fill="#FFFFFD" opacity="1.000000" stroke="none" 
	d="
M494.000000,398.000000 
	C329.371796,398.000000 165.243622,398.000000 1.057713,398.000000 
	C1.057713,265.736176 1.057713,133.472321 1.057713,1.104234 
	C223.878204,1.104234 446.756500,1.104234 669.817383,1.104234 
	C669.817383,133.333130 669.817383,265.666534 669.817383,398.000000 
	C611.472290,398.000000 552.986145,398.000000 494.000000,398.000000 
M151.033432,125.383011 
	C150.737259,125.172844 150.441071,124.962677 150.189926,124.864174 
	C150.189926,124.864174 150.271912,124.775986 150.086365,124.131821 
	C142.670380,116.087448 133.563202,113.678169 123.013474,115.996803 
	C123.013474,115.996803 123.006386,116.020454 122.177628,115.965996 
	C116.801437,117.643051 111.116127,118.681488 106.102791,121.108170 
	C84.871002,131.385269 69.315254,147.733810 57.873940,168.100311 
	C50.929852,180.461349 46.225140,193.596115 47.101891,208.059952 
	C47.651508,217.127045 49.465046,225.874863 57.150589,232.837082 
	C62.413067,237.917862 68.465401,240.902069 76.558907,240.272781 
	C80.966316,240.095871 85.178314,239.490265 88.415352,235.126877 
	C85.417557,235.126877 83.115654,235.272461 80.840942,235.086121 
	C78.547562,234.898224 76.281197,234.380768 73.469833,233.599960 
	C62.458286,228.221176 57.454323,218.750961 58.173306,207.190598 
	C58.762638,197.714828 61.692055,188.384583 64.031906,178.422424 
	C75.643517,154.405457 91.983017,134.992752 117.845467,124.017761 
	C124.318932,122.441086 130.667114,121.623390 136.205826,127.713829 
	C141.555649,137.064850 140.428299,147.192749 138.345520,156.824387 
	C135.234436,171.211288 130.762787,185.303986 126.422195,199.878448 
	C126.341148,200.240082 126.260101,200.601730 125.813393,201.618530 
	C123.079865,208.708954 120.315796,215.787796 117.619301,222.892288 
	C112.347527,236.781921 107.113487,250.685898 101.370888,265.042908 
	C101.206306,265.685150 101.041718,266.327393 100.345451,267.445923 
	C97.852859,275.781677 95.360260,284.117432 92.410751,292.830322 
	C92.336891,293.206696 92.263023,293.583038 91.868202,294.716736 
	C90.896736,303.864349 89.312775,313.006958 89.237846,322.161896 
	C89.205223,326.146851 92.270920,330.157166 94.202682,334.784271 
	C100.555557,340.383240 106.206825,340.108459 114.560768,333.565216 
	C141.270691,307.932770 154.085480,273.651520 171.474442,242.102097 
	C171.337662,245.036316 170.794800,247.830612 170.241455,250.622833 
	C168.499069,259.415253 166.752747,268.206848 164.700043,277.737762 
	C164.493530,286.674591 163.780930,295.639404 164.272293,304.537689 
	C164.562119,309.786072 165.935211,315.332550 171.429443,319.287994 
	C177.884354,324.060577 182.577209,324.082062 190.786087,319.165527 
	C195.717560,314.050842 201.837570,309.637299 205.348907,303.684875 
	C214.452805,288.251801 223.225021,272.514374 230.664871,256.229248 
	C250.815536,212.121384 267.754150,166.409607 297.639923,126.682732 
	C307.503143,116.827652 316.621338,106.046028 327.424103,97.359413 
	C340.033966,87.219727 354.275146,79.634972 372.099731,88.067604 
	C369.347137,82.607040 367.000214,78.113472 361.018188,76.290306 
	C360.019836,75.898254 359.021515,75.506195 357.374695,74.991997 
	C356.937622,74.943176 356.500519,74.894363 355.759247,74.230057 
	C348.929932,74.805344 341.673248,74.134926 335.386505,76.291702 
	C328.528931,78.644295 322.025055,82.945320 316.323090,87.574600 
	C300.088287,100.755280 288.436066,117.828278 277.794861,135.580872 
	C258.239563,168.204697 244.042770,203.382996 228.858765,238.111023 
	C220.679504,256.818176 211.659149,275.181915 202.355240,293.361237 
	C198.545853,300.804504 193.984070,308.222504 185.233963,312.201172 
	C183.717514,310.517120 181.171295,308.990570 180.884918,307.118378 
	C180.137573,302.232574 179.835770,297.142181 180.316940,292.227417 
	C183.099762,263.801941 190.151581,236.281509 198.717499,209.129059 
	C201.811615,199.321213 205.425797,189.677399 209.109940,179.274200 
	C208.715195,178.182968 208.320450,177.091736 207.812866,175.291443 
	C206.541992,174.880554 205.271118,174.469666 203.342712,173.883026 
	C202.895020,173.933594 202.447311,173.984161 201.171143,173.876221 
	C194.038040,172.927368 191.878296,178.251862 189.443314,183.198959 
	C172.281067,218.066940 155.483261,253.120987 137.802856,287.724091 
	C130.273499,302.460205 121.717522,316.846375 108.106628,327.859497 
	C107.072433,326.221741 105.123589,324.554260 105.175697,322.951843 
	C105.331421,318.163757 105.857834,313.302277 106.972763,308.644958 
	C113.357254,281.975555 124.524651,256.986542 134.402939,231.547531 
	C143.203461,208.884033 152.287354,186.303513 156.445618,162.178879 
	C158.537155,150.044556 159.354294,137.979263 151.891632,126.476921 
	C151.617264,126.268661 151.342880,126.060410 151.057129,125.948708 
	C151.057129,125.948708 151.153549,125.936203 151.033432,125.383011 
M472.313477,252.095673 
	C470.606628,253.385437 468.795654,254.559357 467.210388,255.984360 
	C458.996643,263.367737 450.800201,270.784485 447.085541,282.513336 
	C444.764465,293.125275 447.925446,300.786896 456.516235,304.611023 
	C467.111145,308.283752 476.623810,305.236023 485.202942,299.189789 
	C504.029694,285.921448 511.206726,266.684174 511.720001,244.505264 
	C511.838470,239.386063 511.867493,234.811386 517.844360,232.107208 
	C519.383118,231.524124 520.943909,230.992767 522.457214,230.349716 
	C534.092285,225.405441 545.531189,219.926315 557.391785,215.603378 
	C574.189819,209.480865 591.441345,204.847458 609.633240,206.839981 
	C623.631958,208.373199 634.307495,214.544724 638.439575,229.051773 
	C638.475891,229.179153 638.958313,229.179489 639.233215,229.235519 
	C641.819458,219.027344 638.467224,209.410858 630.067139,203.295517 
	C622.621155,197.874725 613.998535,196.171631 605.049744,195.996857 
	C586.718018,195.638763 569.354980,200.404205 552.762817,207.535080 
	C539.213074,213.358383 526.233826,220.509109 512.191223,226.997971 
	C511.688629,226.308289 510.918427,225.686508 510.723633,224.918747 
	C507.919281,213.864517 505.369171,202.742355 502.364777,191.743912 
	C501.056335,186.953796 500.209351,182.486526 503.839233,177.839951 
	C507.701447,171.928314 512.017151,166.245636 515.179993,159.980927 
	C516.287170,157.787827 515.579285,153.072281 513.865662,151.466949 
	C511.715790,149.452850 507.515839,148.362427 504.492218,148.816162 
	C498.699799,149.685425 494.486420,153.631393 491.350342,158.674118 
	C485.494324,168.090378 485.292786,178.449249 485.516388,189.462738 
	C482.655640,193.942276 479.912048,198.501877 476.914520,202.887924 
	C461.071747,226.069229 445.543518,249.549866 420.411896,264.868622 
	C420.411896,264.868622 419.982391,265.092102 419.375763,265.037201 
	C418.864380,265.341736 418.353027,265.646271 417.357788,265.961243 
	C417.357788,265.961243 416.957794,266.233643 416.406982,266.251648 
	C416.116272,266.466400 415.825592,266.681183 414.676147,266.901306 
	C404.217651,268.290741 399.789825,265.604431 398.403595,256.000977 
	C396.859863,245.306244 400.400696,235.350067 404.289642,225.613525 
	C404.666229,224.670715 406.697449,224.388794 408.784973,223.920731 
	C411.607178,223.330933 414.429382,222.741119 418.002319,222.082336 
	C419.574646,221.573029 421.184753,221.157318 422.713287,220.539627 
	C434.654358,215.713989 444.834381,208.742538 451.667786,196.658340 
	C453.018921,193.441925 454.814545,190.335571 455.643005,186.989731 
	C458.942627,173.664230 451.517914,165.618607 437.995880,167.940308 
	C434.131683,168.603790 430.225281,169.933594 426.741455,171.736893 
	C413.953430,178.356232 404.193390,188.548615 397.084320,200.721558 
	C390.176270,212.550354 384.859039,225.308212 378.287537,238.067215 
	C368.958313,251.288788 360.454071,265.246185 345.341248,274.039917 
	C341.285950,274.781921 338.959808,272.784149 338.039764,269.088196 
	C337.406403,266.543732 336.688843,263.844879 336.907196,261.291870 
	C338.466675,243.060532 339.159271,224.500534 353.649231,209.826828 
	C370.531586,190.632019 385.197266,169.849915 396.903595,147.143417 
	C402.050507,137.160141 405.748993,126.430138 410.561829,115.450188 
	C411.089294,110.200500 412.145935,104.933563 411.975494,99.706635 
	C411.841034,95.583527 409.582916,92.102859 403.974548,91.303413 
	C398.132050,90.424843 392.908844,92.720421 389.129028,96.439148 
	C382.885315,102.581947 376.890930,109.217979 372.016693,116.469704 
	C354.804199,142.077850 342.987366,170.325668 333.213562,199.446777 
	C329.565826,210.315216 327.934326,222.048096 323.046570,232.269287 
	C315.423462,248.210571 304.849762,262.524872 291.839386,274.709442 
	C289.179291,277.200684 285.350128,278.443634 281.414703,279.873779 
	C280.398041,276.727081 278.130493,273.377350 278.602112,270.472260 
	C279.952057,262.156586 281.586609,253.701843 284.609283,245.881577 
	C290.953613,229.467392 298.353546,213.463699 305.063263,197.185608 
	C306.066864,194.750870 305.680267,191.743088 305.791809,188.291260 
	C299.366882,184.598862 294.245758,185.901016 289.460938,193.127197 
	C280.323975,206.926163 274.176270,222.167877 268.846558,237.741409 
	C264.914673,249.230453 261.575073,260.867798 262.955994,273.253143 
	C263.542816,278.516174 265.243622,283.227844 270.279541,286.932648 
	C277.809448,291.498199 284.426697,290.395721 293.700562,282.909607 
	C305.018402,274.039978 312.612549,262.018494 321.086578,249.396423 
	C321.086578,253.155685 320.945160,255.658279 321.114288,258.139679 
	C321.540253,264.388580 321.544586,270.784729 326.255127,276.562500 
	C333.446014,285.866577 343.295837,286.164368 354.781128,277.141479 
	C365.444336,268.588043 373.952698,258.266052 380.741486,246.733246 
	C380.811493,248.527496 380.736359,250.341507 380.977539,252.112442 
	C381.859497,258.587860 383.079010,264.950470 388.487427,269.711700 
	C388.487427,269.711700 388.646667,269.804260 388.868866,270.452209 
	C389.223267,270.722931 389.577698,270.993683 390.246613,271.853882 
	C400.332336,279.149872 413.076324,278.477112 426.671448,269.865875 
	C434.688354,263.181610 443.932404,257.509644 450.459900,249.596725 
	C463.014252,234.377762 474.013916,217.877716 485.719238,201.953751 
	C486.545654,200.829483 487.871216,200.072128 488.873840,199.828354 
	C489.222748,200.724808 489.776886,201.596313 489.889313,202.521500 
	C491.280945,213.978180 492.608276,225.442688 493.415619,237.320892 
	C486.601593,242.179291 479.787537,247.037689 472.313477,252.095673 
M319.110504,164.563812 
	C320.037018,162.985764 321.083862,161.464874 321.866150,159.818329 
	C323.767120,155.817169 324.627014,151.778748 320.575623,148.521912 
	C317.262817,145.858826 311.405518,146.178940 308.337616,150.003754 
	C305.406097,153.658569 302.958588,158.038086 301.627838,162.495956 
	C300.979736,164.666946 302.673431,168.581436 304.584625,170.151596 
	C306.202362,171.480667 309.944885,171.318939 312.225525,170.449234 
	C314.694031,169.507858 316.558105,166.981522 319.110504,164.563812 
z"/>
<path fill="#F7B80E" opacity="1.000000" stroke="none" 
	d="
M297.076996,127.028221 
	C267.754150,166.409607 250.815536,212.121384 230.664871,256.229248 
	C223.225021,272.514374 214.452805,288.251801 205.348907,303.684875 
	C201.837570,309.637299 195.717560,314.050842 190.416443,318.886200 
	C188.699478,316.529083 187.352142,314.451263 186.004807,312.373474 
	C193.984070,308.222504 198.545853,300.804504 202.355240,293.361237 
	C211.659149,275.181915 220.679504,256.818176 228.858765,238.111023 
	C244.042770,203.382996 258.239563,168.204697 277.794861,135.580872 
	C288.436066,117.828278 300.088287,100.755280 316.323090,87.574600 
	C322.025055,82.945320 328.528931,78.644295 335.386505,76.291702 
	C341.673248,74.134926 348.929932,74.805344 355.820618,74.936829 
	C354.252136,76.096092 352.631866,76.587112 350.990814,76.994286 
	C344.642120,78.569504 337.768311,79.066605 332.040161,81.891685 
	C319.472534,88.089928 312.165375,100.434258 302.221069,109.750229 
	C300.084198,111.752075 298.174530,114.231277 296.890442,116.848816 
	C295.304443,120.081825 292.878418,123.734482 297.076996,127.028221 
z"/>
<path fill="#FBBF0F" opacity="1.000000" stroke="none" 
	d="
M113.947891,333.824280 
	C106.206825,340.108459 100.555557,340.383240 94.230980,334.126282 
	C94.507820,330.677338 95.024017,327.879822 94.955872,325.096619 
	C94.730576,315.895691 95.845062,307.009857 98.871544,298.211304 
	C102.350609,288.096985 104.812904,277.637115 108.097717,267.450195 
	C110.013451,261.509125 112.674561,255.808365 115.245621,249.832550 
	C115.660324,249.110611 115.829704,248.555618 116.000603,247.586060 
	C116.764008,243.629623 117.096207,239.924606 118.367317,236.576019 
	C122.389824,225.979218 126.763412,215.515686 131.338394,204.952362 
	C132.450180,203.602936 133.224777,202.301773 134.143829,200.670074 
	C135.855026,196.384323 138.492752,192.504562 138.777649,188.459076 
	C139.488403,178.366119 142.986572,169.181122 145.922119,159.714676 
	C147.436813,154.830093 147.632126,149.339050 147.416016,144.164108 
	C147.134415,137.420807 145.852722,130.719284 145.353882,124.153778 
	C147.228226,124.463844 148.750076,124.619919 150.271912,124.775986 
	C150.271912,124.775986 150.189926,124.864174 150.227966,125.084045 
	C150.561844,125.514679 150.857697,125.725441 151.153549,125.936203 
	C151.153549,125.936203 151.057129,125.948708 151.136841,126.146675 
	C151.469635,126.564682 151.722717,126.784714 151.975815,127.004753 
	C159.354294,137.979263 158.537155,150.044556 156.445618,162.178879 
	C152.287354,186.303513 143.203461,208.884033 134.402939,231.547531 
	C124.524651,256.986542 113.357254,281.975555 106.972763,308.644958 
	C105.857834,313.302277 105.331421,318.163757 105.175697,322.951843 
	C105.123589,324.554260 107.072433,326.221741 108.798248,328.043396 
	C110.975876,330.092987 112.461884,331.958618 113.947891,333.824280 
z"/>
<path fill="#FBBE0E" opacity="1.000000" stroke="none" 
	d="
M404.591400,91.893494 
	C409.582916,92.102859 411.841034,95.583527 411.975494,99.706635 
	C412.145935,104.933563 411.089294,110.200500 409.965637,115.697006 
	C407.360413,113.890984 405.351379,111.838150 403.377441,109.357040 
	C403.553589,108.108444 403.927734,107.246223 403.789307,106.476166 
	C403.458282,104.635231 402.885864,102.837708 402.410889,101.022659 
	C400.710632,101.852623 398.533844,102.273476 397.402130,103.591606 
	C394.378967,107.112801 391.481750,110.826439 389.105255,114.804565 
	C375.478394,137.615021 365.291809,162.047348 355.690277,186.735229 
	C353.588104,192.140549 351.887604,197.702087 349.792847,203.425049 
	C349.542999,204.408783 349.184875,205.374924 349.520905,205.869278 
	C350.556122,207.392349 351.856628,208.735123 353.054047,210.147949 
	C339.159271,224.500534 338.466675,243.060532 336.907196,261.291870 
	C336.688843,263.844879 337.406403,266.543732 338.039764,269.088196 
	C338.959808,272.784149 341.285950,274.781921 346.163208,274.027222 
	C349.365936,275.144745 351.746735,276.274963 354.127502,277.405151 
	C343.295837,286.164368 333.446014,285.866577 326.309265,275.871094 
	C326.393097,272.409698 326.460846,269.639465 326.445160,266.869690 
	C326.401428,259.156036 325.092102,251.200134 326.552277,243.786972 
	C328.646942,233.152618 332.627106,222.873260 336.031189,212.517578 
	C339.912842,200.709152 343.641052,188.824188 348.185211,177.267105 
	C352.598999,166.041489 357.560699,154.984421 363.040741,144.240448 
	C367.088440,136.304703 373.090698,129.337662 376.878937,121.305519 
	C380.941467,112.691780 387.004822,105.881042 393.430756,99.324440 
	C396.491638,96.201302 400.831116,94.331200 404.591400,91.893494 
z"/>
<path fill="#F5B70E" opacity="1.000000" stroke="none" 
	d="
M404.282959,91.598450 
	C400.831116,94.331200 396.491638,96.201302 393.430756,99.324440 
	C387.004822,105.881042 380.941467,112.691780 376.878937,121.305519 
	C373.090698,129.337662 367.088440,136.304703 363.040741,144.240448 
	C357.560699,154.984421 352.598999,166.041489 348.185211,177.267105 
	C343.641052,188.824188 339.912842,200.709152 336.031189,212.517578 
	C332.627106,222.873260 328.646942,233.152618 326.552277,243.786972 
	C325.092102,251.200134 326.401428,259.156036 326.445160,266.869690 
	C326.460846,269.639465 326.393097,272.409698 326.204956,275.546783 
	C321.544586,270.784729 321.540253,264.388580 321.114288,258.139679 
	C320.945160,255.658279 321.086578,253.155685 321.086578,249.396423 
	C312.612549,262.018494 305.018402,274.039978 293.166901,282.746277 
	C289.108795,281.809296 285.584320,281.035645 282.059875,280.261993 
	C285.350128,278.443634 289.179291,277.200684 291.839386,274.709442 
	C304.849762,262.524872 315.423462,248.210571 323.046570,232.269287 
	C327.934326,222.048096 329.565826,210.315216 333.213562,199.446777 
	C342.987366,170.325668 354.804199,142.077850 372.016693,116.469704 
	C376.890930,109.217979 382.885315,102.581947 389.129028,96.439148 
	C392.908844,92.720421 398.132050,90.424843 404.282959,91.598450 
z"/>
<path fill="#FCC00E" opacity="1.000000" stroke="none" 
	d="
M185.619385,312.287323 
	C187.352142,314.451263 188.699478,316.529083 190.078491,318.990173 
	C182.577209,324.082062 177.884354,324.060577 171.216446,318.600708 
	C171.242462,315.471527 172.321365,312.731293 171.577942,310.638336 
	C167.983231,300.517975 169.605560,290.426483 171.457748,280.444336 
	C173.349609,270.248352 175.740738,260.109619 178.590286,250.139297 
	C180.448456,243.637787 180.319351,238.076828 174.995773,233.402435 
	C179.411545,223.265411 183.677185,213.434494 187.985992,203.622543 
	C188.645752,202.120102 189.296967,200.538651 190.307053,199.278122 
	C195.016251,193.401321 201.139847,188.422012 201.643494,180.003891 
	C201.706055,178.958130 203.179733,177.996796 204.332825,176.997894 
	C205.110474,176.999908 205.554825,177.000336 206.160034,177.248962 
	C207.148148,178.317688 207.975403,179.138214 208.802658,179.958740 
	C205.425797,189.677399 201.811615,199.321213 198.717499,209.129059 
	C190.151581,236.281509 183.099762,263.801941 180.316940,292.227417 
	C179.835770,297.142181 180.137573,302.232574 180.884918,307.118378 
	C181.171295,308.990570 183.717514,310.517120 185.619385,312.287323 
z"/>
<path fill="#FBBF0F" opacity="1.000000" stroke="none" 
	d="
M517.077026,232.169373 
	C511.867493,234.811386 511.838470,239.386063 511.720001,244.505264 
	C511.206726,266.684174 504.029694,285.921448 485.202942,299.189789 
	C476.623810,305.236023 467.111145,308.283752 456.284485,303.984436 
	C457.034180,301.274780 458.015594,299.191772 459.411804,297.043152 
	C461.217651,297.071045 462.608673,297.164551 464.252899,297.488129 
	C468.158966,300.430786 471.782257,300.369629 475.514832,297.787689 
	C477.417694,296.471436 479.572754,295.521210 481.484375,294.215973 
	C493.403046,286.078003 500.399536,274.771484 500.813751,260.383881 
	C501.105408,250.253723 502.367279,240.009506 498.418335,229.891861 
	C496.309570,224.488937 497.120758,218.007034 496.125000,212.094482 
	C494.705536,203.666061 492.665710,195.342636 491.222290,186.917572 
	C490.312988,181.609940 491.535675,176.751465 495.640015,172.792328 
	C496.552185,171.912476 497.057190,170.179352 497.043396,168.846405 
	C496.987762,163.469849 500.845001,157.739685 505.133759,157.358826 
	C503.067780,162.980164 501.145050,168.274506 499.305328,173.898987 
	C500.671051,175.522598 501.953827,176.816101 503.236572,178.109589 
	C500.209351,182.486526 501.056335,186.953796 502.364777,191.743912 
	C505.369171,202.742355 507.919281,213.864517 510.723633,224.918747 
	C510.918427,225.686508 511.688629,226.308289 512.635010,227.372299 
	C514.411499,229.220871 515.744263,230.695114 517.077026,232.169373 
z"/>
<path fill="#F5B90A" opacity="1.000000" stroke="none" 
	d="
M145.001373,123.999779 
	C145.852722,130.719284 147.134415,137.420807 147.416016,144.164108 
	C147.632126,149.339050 147.436813,154.830093 145.922119,159.714676 
	C142.986572,169.181122 139.488403,178.366119 138.777649,188.459076 
	C138.492752,192.504562 135.855026,196.384323 133.806595,200.718079 
	C132.550369,202.397980 131.775803,203.699295 131.001221,205.000610 
	C126.763412,215.515686 122.389824,225.979218 118.367317,236.576019 
	C117.096207,239.924606 116.764008,243.629623 115.708000,247.616501 
	C115.276016,248.707489 115.138161,249.353485 115.000305,249.999481 
	C112.674561,255.808365 110.013451,261.509125 108.097717,267.450195 
	C104.812904,277.637115 102.350609,288.096985 98.871544,298.211304 
	C95.845062,307.009857 94.730576,315.895691 94.955872,325.096619 
	C95.024017,327.879822 94.507820,330.677338 94.094376,333.812134 
	C92.270920,330.157166 89.205223,326.146851 89.237846,322.161896 
	C89.312775,313.006958 90.896736,303.864349 92.238480,294.141449 
	C92.695068,293.195160 92.781364,292.824188 92.867661,292.453186 
	C95.360260,284.117432 97.852859,275.781677 100.903412,267.017090 
	C101.595520,265.920135 101.729660,265.252045 101.863815,264.583923 
	C107.113487,250.685898 112.347527,236.781921 117.619301,222.892288 
	C120.315796,215.787796 123.079865,208.708954 126.205276,201.106018 
	C126.688080,200.236267 126.779007,199.879059 126.869934,199.521835 
	C130.762787,185.303986 135.234436,171.211288 138.345520,156.824387 
	C140.428299,147.192749 141.555649,137.064850 136.141327,127.006393 
	C136.382919,123.867607 136.689011,121.436256 137.346252,119.038750 
	C140.132065,120.714989 142.566711,122.357384 145.001373,123.999779 
z"/>
<path fill="#F7B80E" opacity="1.000000" stroke="none" 
	d="
M114.254333,333.694763 
	C112.461884,331.958618 110.975876,330.092987 109.174286,328.079132 
	C121.717522,316.846375 130.273499,302.460205 137.802856,287.724091 
	C155.483261,253.120987 172.281067,218.066940 189.443314,183.198959 
	C191.878296,178.251862 194.038040,172.927368 201.547424,174.306274 
	C200.238495,177.922592 198.604950,181.137833 196.842865,184.280991 
	C196.130753,185.551193 195.197693,186.713791 194.261551,187.839157 
	C191.268723,191.437057 187.254944,194.553284 185.394165,198.653641 
	C180.569168,209.285828 176.664124,220.336807 172.461243,231.247360 
	C172.133224,232.098923 171.968491,233.365799 172.366135,234.088440 
	C175.380066,239.565582 177.087357,245.057053 173.887070,251.105164 
	C173.294617,252.224838 173.286514,253.652786 173.003738,254.937363 
	C171.592392,261.348755 170.329971,267.800110 168.633301,274.135132 
	C168.313889,275.327789 166.260956,276.056183 165.007965,276.998779 
	C166.752747,268.206848 168.499069,259.415253 170.241455,250.622833 
	C170.794800,247.830612 171.337662,245.036316 171.474442,242.102097 
	C154.085480,273.651520 141.270691,307.932770 114.254333,333.694763 
z"/>
<path fill="#FABD10" opacity="1.000000" stroke="none" 
	d="
M517.460693,232.138275 
	C515.744263,230.695114 514.411499,229.220871 513.040161,227.408966 
	C526.233826,220.509109 539.213074,213.358383 552.762817,207.535080 
	C569.354980,200.404205 586.718018,195.638763 605.049744,195.996857 
	C613.998535,196.171631 622.621155,197.874725 630.067139,203.295517 
	C638.467224,209.410858 641.819458,219.027344 639.232788,229.237335 
	C638.958313,229.179489 638.475891,229.179153 638.439575,229.051773 
	C634.307495,214.544724 623.631958,208.373199 609.633240,206.839981 
	C591.441345,204.847458 574.189819,209.480865 557.391785,215.603378 
	C545.531189,219.926315 534.092285,225.405441 522.457214,230.349716 
	C520.943909,230.992767 519.383118,231.524124 517.460693,232.138275 
z"/>
<path fill="#F7B90D" opacity="1.000000" stroke="none" 
	d="
M378.843262,237.658096 
	C384.859039,225.308212 390.176270,212.550354 397.084320,200.721558 
	C404.193390,188.548615 413.953430,178.356232 426.741455,171.736893 
	C430.225281,169.933594 434.131683,168.603790 437.995880,167.940308 
	C451.517914,165.618607 458.942627,173.664230 455.643005,186.989731 
	C454.814545,190.335571 453.018921,193.441925 451.075867,196.581024 
	C450.319397,194.544174 450.528381,192.450027 449.884338,190.663330 
	C449.251495,188.907578 447.752563,187.464020 446.727844,185.451599 
	C446.296722,181.926178 445.771484,178.832642 445.246246,175.739105 
	C442.057159,176.650955 438.722290,177.239182 435.729675,178.587189 
	C433.696869,179.502838 431.952301,181.311539 430.414001,183.022263 
	C426.537659,187.333054 422.851074,191.814468 419.053894,195.814194 
	C417.852478,194.601700 416.743042,193.227097 415.508728,193.103973 
	C410.449371,192.599228 407.373383,196.144379 405.250916,199.794922 
	C400.651123,207.706207 396.366852,215.842499 392.588806,224.174820 
	C390.219604,229.399963 388.947205,235.131546 387.316559,240.675293 
	C386.955383,241.903183 386.970886,243.320435 387.132507,244.610458 
	C388.012177,251.632370 389.091125,258.631134 389.843781,265.665436 
	C389.976166,266.902557 388.886261,268.270447 388.360809,269.577942 
	C383.079010,264.950470 381.859497,258.587860 380.977539,252.112442 
	C380.736359,250.341507 380.811493,248.527496 380.186951,246.212433 
	C379.369354,243.013763 379.106323,240.335938 378.843262,237.658096 
z"/>
<path fill="#FBBE0E" opacity="1.000000" stroke="none" 
	d="
M281.737305,280.067871 
	C285.584320,281.035645 289.108795,281.809296 292.847504,282.859985 
	C284.426697,290.395721 277.809448,291.498199 270.111847,286.221191 
	C269.281799,282.785797 268.474091,280.087280 267.992706,277.331726 
	C267.345886,273.629333 265.796936,269.589294 266.657196,266.208679 
	C269.635559,254.504288 272.869049,242.784515 277.190338,231.525360 
	C281.274841,220.883286 286.620239,210.694366 291.864532,200.540314 
	C294.795319,194.865738 299.240784,190.397552 305.936829,189.000412 
	C305.680267,191.743088 306.066864,194.750870 305.063263,197.185608 
	C298.353546,213.463699 290.953613,229.467392 284.609283,245.881577 
	C281.586609,253.701843 279.952057,262.156586 278.602112,270.472260 
	C278.130493,273.377350 280.398041,276.727081 281.737305,280.067871 
z"/>
<path fill="#F7BA0C" opacity="1.000000" stroke="none" 
	d="
M505.277039,157.031815 
	C500.845001,157.739685 496.987762,163.469849 497.043396,168.846405 
	C497.057190,170.179352 496.552185,171.912476 495.640015,172.792328 
	C491.535675,176.751465 490.312988,181.609940 491.222290,186.917572 
	C492.665710,195.342636 494.705536,203.666061 496.125000,212.094482 
	C497.120758,218.007034 496.309570,224.488937 498.418335,229.891861 
	C502.367279,240.009506 501.105408,250.253723 500.813751,260.383881 
	C500.399536,274.771484 493.403046,286.078003 481.484375,294.215973 
	C479.572754,295.521210 477.417694,296.471436 475.514832,297.787689 
	C471.782257,300.369629 468.158966,300.430786 464.610229,297.369812 
	C467.341125,295.977020 469.967834,294.932617 472.903748,293.822754 
	C473.493530,293.454193 473.774109,293.151062 474.152832,292.656036 
	C474.250916,292.464111 474.653015,292.308594 474.818359,292.639526 
	C476.781708,292.353302 478.814270,292.085236 480.338684,291.060944 
	C488.670776,285.462280 491.501434,276.326050 494.945892,267.634766 
	C496.882874,262.747223 497.921021,257.842255 493.692352,253.030914 
	C493.700165,250.881653 493.786255,249.116211 493.907806,246.622772 
	C491.271637,248.082352 489.200226,249.229233 487.099609,249.988739 
	C488.638641,247.919464 490.144592,246.173599 491.790375,244.571365 
	C494.017609,242.403000 495.980316,240.238983 493.952148,236.905182 
	C492.608276,225.442688 491.280945,213.978180 489.889313,202.521500 
	C489.776886,201.596313 489.222748,200.724808 488.776703,199.127960 
	C487.783691,195.282928 486.887787,192.138290 485.991913,188.993652 
	C485.292786,178.449249 485.494324,168.090378 491.350342,158.674118 
	C494.486420,153.631393 498.699799,149.685425 504.492218,148.816162 
	C507.515839,148.362427 511.715790,149.452850 513.865662,151.466949 
	C515.579285,153.072281 516.287170,157.787827 515.179993,159.980927 
	C512.017151,166.245636 507.701447,171.928314 503.537903,177.974762 
	C501.953827,176.816101 500.671051,175.522598 499.622314,173.969635 
	C502.847687,168.959976 506.249847,164.407913 508.672882,159.383636 
	C510.076050,156.474152 508.015289,155.566940 505.277039,157.031815 
z"/>
<path fill="#F8B90E" opacity="1.000000" stroke="none" 
	d="
M117.000717,124.031311 
	C91.983017,134.992752 75.643517,154.405457 63.466583,178.723328 
	C62.580471,179.101913 62.094700,179.071335 61.962532,179.272766 
	C55.056652,189.797821 51.882114,200.945236 56.109943,213.418579 
	C56.535236,214.673279 56.007263,216.242645 55.962173,217.667252 
	C55.896538,219.741028 55.708443,221.827850 55.862064,223.887527 
	C56.070286,226.679291 56.552376,229.450653 56.916992,232.230759 
	C49.465046,225.874863 47.651508,217.127045 47.101891,208.059952 
	C46.225140,193.596115 50.929852,180.461349 57.873940,168.100311 
	C69.315254,147.733810 84.871002,131.385269 106.102791,121.108170 
	C111.116127,118.681488 116.801437,117.643051 122.552780,116.337296 
	C120.952187,119.149490 118.976448,121.590401 117.000717,124.031311 
z"/>
<path fill="#FBBF0F" opacity="1.000000" stroke="none" 
	d="
M388.424133,269.644836 
	C388.886261,268.270447 389.976166,266.902557 389.843781,265.665436 
	C389.091125,258.631134 388.012177,251.632370 387.132507,244.610458 
	C386.970886,243.320435 386.955383,241.903183 387.316559,240.675293 
	C388.947205,235.131546 390.219604,229.399963 392.588806,224.174820 
	C396.366852,215.842499 400.651123,207.706207 405.250916,199.794922 
	C407.373383,196.144379 410.449371,192.599228 415.508728,193.103973 
	C416.743042,193.227097 417.852478,194.601700 418.986755,196.143738 
	C414.939148,204.052841 410.924133,211.219086 406.938354,218.733185 
	C407.298615,220.654037 407.629578,222.227066 407.960571,223.800079 
	C406.697449,224.388794 404.666229,224.670715 404.289642,225.613525 
	C400.400696,235.350067 396.859863,245.306244 398.403595,256.000977 
	C399.789825,265.604431 404.217651,268.290741 415.379852,266.872162 
	C416.374969,266.639893 416.666382,266.436768 416.957794,266.233643 
	C416.957794,266.233643 417.357788,265.961243 417.907349,265.954285 
	C418.965424,265.662262 419.473907,265.377197 419.982391,265.092102 
	C419.982391,265.092102 420.411896,264.868622 420.789001,265.124817 
	C422.771912,266.909760 424.377716,268.438568 425.983551,269.967346 
	C413.076324,278.477112 400.332336,279.149872 389.970398,271.245575 
	C389.344971,270.359619 388.995819,270.081940 388.646667,269.804260 
	C388.646667,269.804260 388.487427,269.711700 388.424133,269.644836 
z"/>
<path fill="#F6B60F" opacity="1.000000" stroke="none" 
	d="
M403.342346,109.785309 
	C405.351379,111.838150 407.360413,113.890984 409.737305,115.991501 
	C405.748993,126.430138 402.050507,137.160141 396.903595,147.143417 
	C385.197266,169.849915 370.531586,190.632019 353.351624,209.987396 
	C351.856628,208.735123 350.556122,207.392349 349.520905,205.869278 
	C349.184875,205.374924 349.542999,204.408783 350.124695,203.322372 
	C373.131622,174.692734 392.820618,144.829651 403.342346,109.785309 
z"/>
<path fill="#FCC00E" opacity="1.000000" stroke="none" 
	d="
M297.358459,126.855476 
	C292.878418,123.734482 295.304443,120.081825 296.890442,116.848816 
	C298.174530,114.231277 300.084198,111.752075 302.221069,109.750229 
	C312.165375,100.434258 319.472534,88.089928 332.040161,81.891685 
	C337.768311,79.066605 344.642120,78.569504 350.990814,76.994286 
	C352.631866,76.587112 354.252136,76.096092 355.972717,75.244568 
	C356.500519,74.894363 356.937622,74.943176 357.894135,75.298607 
	C359.363647,76.045105 360.313751,76.484993 361.263824,76.924873 
	C367.000214,78.113472 369.347137,82.607040 372.099731,88.067604 
	C354.275146,79.634972 340.033966,87.219727 327.424103,97.359413 
	C316.621338,106.046028 307.503143,116.827652 297.358459,126.855476 
z"/>
<path fill="#F3B40F" opacity="1.000000" stroke="none" 
	d="
M426.327515,269.916626 
	C424.377716,268.438568 422.771912,266.909760 421.023193,265.063477 
	C445.543518,249.549866 461.071747,226.069229 476.914520,202.887924 
	C479.912048,198.501877 482.655640,193.942276 485.754150,189.228195 
	C486.887787,192.138290 487.783691,195.282928 488.822113,198.785873 
	C487.871216,200.072128 486.545654,200.829483 485.719238,201.953751 
	C474.013916,217.877716 463.014252,234.377762 450.459900,249.596725 
	C443.932404,257.509644 434.688354,263.181610 426.327515,269.916626 
z"/>
<path fill="#F7BB0E" opacity="1.000000" stroke="none" 
	d="
M164.854004,277.368286 
	C166.260956,276.056183 168.313889,275.327789 168.633301,274.135132 
	C170.329971,267.800110 171.592392,261.348755 173.003738,254.937363 
	C173.286514,253.652786 173.294617,252.224838 173.887070,251.105164 
	C177.087357,245.057053 175.380066,239.565582 172.366135,234.088440 
	C171.968491,233.365799 172.133224,232.098923 172.461243,231.247360 
	C176.664124,220.336807 180.569168,209.285828 185.394165,198.653641 
	C187.254944,194.553284 191.268723,191.437057 194.261551,187.839157 
	C195.197693,186.713791 196.130753,185.551193 196.842865,184.280991 
	C198.604950,181.137833 200.238495,177.922592 201.961655,174.385529 
	C202.447311,173.984161 202.895020,173.933594 203.671356,174.338028 
	C203.999847,175.527466 203.999695,176.261902 203.999542,176.996338 
	C203.179733,177.996796 201.706055,178.958130 201.643494,180.003891 
	C201.139847,188.422012 195.016251,193.401321 190.307053,199.278122 
	C189.296967,200.538651 188.645752,202.120102 187.985992,203.622543 
	C183.677185,213.434494 179.411545,223.265411 174.995773,233.402435 
	C180.319351,238.076828 180.448456,243.637787 178.590286,250.139297 
	C175.740738,260.109619 173.349609,270.248352 171.457748,280.444336 
	C169.605560,290.426483 167.983231,300.517975 171.577942,310.638336 
	C172.321365,312.731293 171.242462,315.471527 171.003815,318.305786 
	C165.935211,315.332550 164.562119,309.786072 164.272293,304.537689 
	C163.780930,295.639404 164.493530,286.674591 164.854004,277.368286 
z"/>
<path fill="#F5BA0D" opacity="1.000000" stroke="none" 
	d="
M305.864319,188.645844 
	C299.240784,190.397552 294.795319,194.865738 291.864532,200.540314 
	C286.620239,210.694366 281.274841,220.883286 277.190338,231.525360 
	C272.869049,242.784515 269.635559,254.504288 266.657196,266.208679 
	C265.796936,269.589294 267.345886,273.629333 267.992706,277.331726 
	C268.474091,280.087280 269.281799,282.785797 269.910522,285.941895 
	C265.243622,283.227844 263.542816,278.516174 262.955994,273.253143 
	C261.575073,260.867798 264.914673,249.230453 268.846558,237.741409 
	C274.176270,222.167877 280.323975,206.926163 289.460938,193.127197 
	C294.245758,185.901016 299.366882,184.598862 305.864319,188.645844 
z"/>
<path fill="#F9BD0E" opacity="1.000000" stroke="none" 
	d="
M318.898163,164.855133 
	C316.558105,166.981522 314.694031,169.507858 312.225525,170.449234 
	C309.944885,171.318939 306.202362,171.480667 304.584625,170.151596 
	C302.673431,168.581436 300.979736,164.666946 301.627838,162.495956 
	C302.958588,158.038086 305.406097,153.658569 308.337616,150.003754 
	C311.405518,146.178940 317.262817,145.858826 320.575623,148.521912 
	C324.627014,151.778748 323.767120,155.817169 321.866150,159.818329 
	C321.083862,161.464874 320.037018,162.985764 318.898163,164.855133 
z"/>
<path fill="#F3B40F" opacity="1.000000" stroke="none" 
	d="
M446.633667,185.883469 
	C447.752563,187.464020 449.251495,188.907578 449.884338,190.663330 
	C450.528381,192.450027 450.319397,194.544174 450.790466,196.775833 
	C444.834381,208.742538 434.654358,215.713989 422.713287,220.539627 
	C421.184753,221.157318 419.574646,221.573029 417.305725,222.054535 
	C416.147339,221.615509 415.384033,221.267075 415.282715,220.780762 
	C415.022369,219.530853 415.055603,218.219772 415.240723,216.715225 
	C430.029327,210.506546 440.872589,200.778427 446.633667,185.883469 
z"/>
<path fill="#FBBF0F" opacity="1.000000" stroke="none" 
	d="
M57.033791,232.533920 
	C56.552376,229.450653 56.070286,226.679291 55.862064,223.887527 
	C55.708443,221.827850 55.896538,219.741028 55.962173,217.667252 
	C56.007263,216.242645 56.535236,214.673279 56.109943,213.418579 
	C51.882114,200.945236 55.056652,189.797821 61.962532,179.272766 
	C62.094700,179.071335 62.580471,179.101913 63.242706,179.007050 
	C61.692055,188.384583 58.762638,197.714828 58.173306,207.190598 
	C57.454323,218.750961 62.458286,228.221176 73.718040,234.106125 
	C74.645645,236.388184 75.325035,238.164062 76.004425,239.939957 
	C68.465401,240.902069 62.413067,237.917862 57.033791,232.533920 
z"/>
<path fill="#F1B20D" opacity="1.000000" stroke="none" 
	d="
M378.565430,237.862656 
	C379.106323,240.335938 379.369354,243.013763 379.936462,245.906586 
	C373.952698,258.266052 365.444336,268.588043 354.454315,277.273315 
	C351.746735,276.274963 349.365936,275.144745 346.584351,274.037476 
	C360.454071,265.246185 368.958313,251.288788 378.565430,237.862656 
z"/>
<path fill="#F1B20D" opacity="1.000000" stroke="none" 
	d="
M447.448883,281.884888 
	C450.800201,270.784485 458.996643,263.367737 467.210388,255.984360 
	C468.795654,254.559357 470.606628,253.385437 472.651184,252.422272 
	C472.645935,255.760910 472.302948,258.772949 471.779633,262.072266 
	C466.364868,268.233215 461.130493,274.106934 455.596100,279.843140 
	C452.680359,280.432037 450.064636,281.158478 447.448883,281.884888 
z"/>
<path fill="#F9BD0E" opacity="1.000000" stroke="none" 
	d="
M447.267212,282.199127 
	C450.064636,281.158478 452.680359,280.432037 455.565094,280.226074 
	C453.007538,286.950836 453.299316,292.552307 458.997009,297.108765 
	C458.015594,299.191772 457.034180,301.274780 456.014954,303.711365 
	C447.925446,300.786896 444.764465,293.125275 447.267212,282.199127 
z"/>
<path fill="#F5B70E" opacity="1.000000" stroke="none" 
	d="
M471.959991,261.785004 
	C472.302948,258.772949 472.645935,255.760910 472.981201,252.322479 
	C479.787537,247.037689 486.601593,242.179291 493.683899,237.113037 
	C495.980316,240.238983 494.017609,242.403000 491.790375,244.571365 
	C490.144592,246.173599 488.638641,247.919464 486.909058,250.250641 
	C481.818420,254.528275 476.889221,258.156647 471.959991,261.785004 
z"/>
<path fill="#FBBF0F" opacity="1.000000" stroke="none" 
	d="
M117.423088,124.024536 
	C118.976448,121.590401 120.952187,119.149490 122.967155,116.364517 
	C123.006386,116.020454 123.013474,115.996803 123.469925,115.998337 
	C128.651840,115.395851 133.043594,116.243118 136.995117,119.004906 
	C136.689011,121.436256 136.382919,123.867607 136.033722,126.655991 
	C130.667114,121.623390 124.318932,122.441086 117.423088,124.024536 
z"/>
<path fill="#F8B90E" opacity="1.000000" stroke="none" 
	d="
M137.346252,119.038750 
	C133.043594,116.243118 128.651840,115.395851 123.479393,116.006126 
	C133.563202,113.678169 142.670380,116.087448 150.179138,124.453903 
	C148.750076,124.619919 147.228226,124.463844 145.353882,124.153778 
	C142.566711,122.357384 140.132065,120.714989 137.346252,119.038750 
z"/>
<path fill="#F4BE3A" opacity="1.000000" stroke="none" 
	d="
M76.281662,240.106369 
	C75.325035,238.164062 74.645645,236.388184 73.984619,234.309998 
	C76.281197,234.380768 78.547562,234.898224 80.840942,235.086121 
	C83.115654,235.272461 85.417557,235.126877 88.415352,235.126877 
	C85.178314,239.490265 80.966316,240.095871 76.281662,240.106369 
z"/>
<path fill="#F4BE3A" opacity="1.000000" stroke="none" 
	d="
M414.971497,216.933151 
	C415.055603,218.219772 415.022369,219.530853 415.282715,220.780762 
	C415.384033,221.267075 416.147339,221.615509 416.930359,222.089020 
	C414.429382,222.741119 411.607178,223.330933 408.372772,223.860413 
	C407.629578,222.227066 407.298615,220.654037 407.352692,218.689514 
	C410.149017,217.843033 412.560242,217.388092 414.971497,216.933151 
z"/>
<path fill="#F7B80E" opacity="1.000000" stroke="none" 
	d="
M204.332825,176.997894 
	C203.999695,176.261902 203.999847,175.527466 204.000122,174.425903 
	C205.271118,174.469666 206.541992,174.880554 207.580078,175.668396 
	C206.897919,176.363831 206.448547,176.682297 205.999191,177.000763 
	C205.554825,177.000336 205.110474,176.999908 204.332825,176.997894 
z"/>
<path fill="#F7BB0E" opacity="1.000000" stroke="none" 
	d="
M206.160034,177.248962 
	C206.448547,176.682297 206.897919,176.363831 207.636505,176.022934 
	C208.320450,177.091736 208.715195,178.182968 208.956299,179.616470 
	C207.975403,179.138214 207.148148,178.317688 206.160034,177.248962 
z"/>
<path fill="#F7B80E" opacity="1.000000" stroke="none" 
	d="
M361.140991,76.607590 
	C360.313751,76.484993 359.363647,76.045105 358.218384,75.359680 
	C359.021515,75.506195 360.019836,75.898254 361.140991,76.607590 
z"/>
<path fill="#F5BA0D" opacity="1.000000" stroke="none" 
	d="
M101.617348,264.813416 
	C101.729660,265.252045 101.595520,265.920135 101.169250,266.778931 
	C101.041718,266.327393 101.206306,265.685150 101.617348,264.813416 
z"/>
<path fill="#F3B40F" opacity="1.000000" stroke="none" 
	d="
M419.679077,265.064636 
	C419.473907,265.377197 418.965424,265.662262 418.149292,265.949066 
	C418.353027,265.646271 418.864380,265.341736 419.679077,265.064636 
z"/>
<path fill="#F5BA0D" opacity="1.000000" stroke="none" 
	d="
M126.646065,199.700134 
	C126.779007,199.879059 126.688080,200.236267 126.388107,200.778427 
	C126.260101,200.601730 126.341148,200.240082 126.646065,199.700134 
z"/>
<path fill="#F3B40F" opacity="1.000000" stroke="none" 
	d="
M416.682373,266.242645 
	C416.666382,266.436768 416.374969,266.639893 415.809204,266.869476 
	C415.825592,266.681183 416.116272,266.466400 416.682373,266.242645 
z"/>
<path fill="#F7B90D" opacity="1.000000" stroke="none" 
	d="
M388.757751,270.128235 
	C388.995819,270.081940 389.344971,270.359619 389.813110,270.950836 
	C389.577698,270.993683 389.223267,270.722931 388.757751,270.128235 
z"/>
<path fill="#F8B90E" opacity="1.000000" stroke="none" 
	d="
M151.933716,126.740837 
	C151.722717,126.784714 151.469635,126.564682 151.142517,126.098396 
	C151.342880,126.060410 151.617264,126.268661 151.933716,126.740837 
z"/>
<path fill="#F8B90E" opacity="1.000000" stroke="none" 
	d="
M151.093491,125.659607 
	C150.857697,125.725441 150.561844,125.514679 150.205444,125.028214 
	C150.441071,124.962677 150.737259,125.172844 151.093491,125.659607 
z"/>
<path fill="#F5BA0D" opacity="1.000000" stroke="none" 
	d="
M92.639206,292.641754 
	C92.781364,292.824188 92.695068,293.195160 92.398956,293.762787 
	C92.263023,293.583038 92.336891,293.206696 92.639206,292.641754 
z"/>
<path fill="#F5BA0D" opacity="1.000000" stroke="none" 
	d="
M131.338394,204.952362 
	C131.775803,203.699295 132.550369,202.397980 133.662170,201.048630 
	C133.224777,202.301773 132.450180,203.602936 131.338394,204.952362 
z"/>
<path fill="#F5BA0D" opacity="1.000000" stroke="none" 
	d="
M115.245621,249.832550 
	C115.138161,249.353485 115.276016,248.707489 115.706482,248.031052 
	C115.829704,248.555618 115.660324,249.110611 115.245621,249.832550 
z"/>
<path fill="#FEFCF5" opacity="1.000000" stroke="none" 
	d="
M403.377441,109.357040 
	C392.820618,144.829651 373.131622,174.692734 350.333923,203.088989 
	C351.887604,197.702087 353.588104,192.140549 355.690277,186.735229 
	C365.291809,162.047348 375.478394,137.615021 389.105255,114.804565 
	C391.481750,110.826439 394.378967,107.112801 397.402130,103.591606 
	C398.533844,102.273476 400.710632,101.852623 402.410889,101.022659 
	C402.885864,102.837708 403.458282,104.635231 403.789307,106.476166 
	C403.927734,107.246223 403.553589,108.108444 403.377441,109.357040 
z"/>
<path fill="#FEFDF8" opacity="1.000000" stroke="none" 
	d="
M471.779633,262.072266 
	C476.889221,258.156647 481.818420,254.528275 486.938232,250.638000 
	C489.200226,249.229233 491.271637,248.082352 493.907806,246.622772 
	C493.786255,249.116211 493.700165,250.881653 493.436829,253.358215 
	C490.929169,268.699707 485.553619,281.848328 474.653015,292.308594 
	C474.653015,292.308594 474.250916,292.464111 473.848450,292.732666 
	C473.162201,293.296906 472.878387,293.592560 472.594543,293.888245 
	C469.967834,294.932617 467.341125,295.977020 464.357056,297.139709 
	C462.608673,297.164551 461.217651,297.071045 459.411804,297.043152 
	C453.299316,292.552307 453.007538,286.950836 455.865112,280.363586 
	C461.130493,274.106934 466.364868,268.233215 471.779633,262.072266 
z"/>
<path fill="#FCF6E1" opacity="1.000000" stroke="none" 
	d="
M505.133759,157.358826 
	C508.015289,155.566940 510.076050,156.474152 508.672882,159.383636 
	C506.249847,164.407913 502.847687,168.959976 499.539337,173.639511 
	C501.145050,168.274506 503.067780,162.980164 505.133759,157.358826 
z"/>
<path fill="#FEFDF7" opacity="1.000000" stroke="none" 
	d="
M415.240723,216.715225 
	C412.560242,217.388092 410.149017,217.843033 407.323425,218.341660 
	C410.924133,211.219086 414.939148,204.052841 419.021301,196.557037 
	C422.851074,191.814468 426.537659,187.333054 430.414001,183.022263 
	C431.952301,181.311539 433.696869,179.502838 435.729675,178.587189 
	C438.722290,177.239182 442.057159,176.650955 445.246246,175.739105 
	C445.771484,178.832642 446.296722,181.926178 446.727844,185.451599 
	C440.872589,200.778427 430.029327,210.506546 415.240723,216.715225 
z"/>
<path fill="#F5B70E" opacity="1.000000" stroke="none" 
	d="
M474.818359,292.639526 
	C485.553619,281.848328 490.929169,268.699707 493.515076,253.742020 
	C497.921021,257.842255 496.882874,262.747223 494.945892,267.634766 
	C491.501434,276.326050 488.670776,285.462280 480.338684,291.060944 
	C478.814270,292.085236 476.781708,292.353302 474.818359,292.639526 
z"/>
<path fill="#F5B70E" opacity="1.000000" stroke="none" 
	d="
M472.903748,293.822754 
	C472.878387,293.592560 473.162201,293.296906 473.750366,292.924622 
	C473.774109,293.151062 473.493530,293.454193 472.903748,293.822754 
z"/>
</svg>